<?xml version="1.0"?>

<svg xmlns="http://www.w3.org/2000/svg" xmlns:xlink="http://www.w3.org/1999/xlink" xmlns:xodm="http://www.corel.com/coreldraw/odm/2003" xml:space="preserve" width="10500" height="2600" version="1.1" style="shape-rendering:geometricPrecision; text-rendering:geometricPrecision; image-rendering:optimizeQuality; fill-rule:evenodd; clip-rule:evenodd" viewBox="0 0 10500 2600">
 <defs>
  
 </defs>
 <g id="Layer_x0020_1">
  <metadata id="CorelCorpID_0Corel-Layer"></metadata>
  <g id="_1566417484272">
   <g>
    <path class="fil0" d="M1151.59 1102.32c-132.97,0 -286.92,-6.98 -293.93,-6.98l-7 0c-41.98,-6.97 -265.92,-27.88 -342.9,-146.39 -28,-41.83 -35,-90.63 -13.99,-146.4 55.98,-167.31 216.93,-501.93 356.89,-662.27 62.99,-69.72 146.97,-104.57 230.95,-83.66 125.97,27.89 237.94,160.34 286.93,320.68 62.98,230.05 118.96,369.48 146.96,425.25 27.98,55.77 20.99,132.45 -14,188.23 -34.99,62.74 -97.98,97.59 -174.95,104.56 -35,6.98 -104.98,6.98 -174.96,6.98zm-286.92 -146.4c27.99,0 342.91,13.94 454.88,0 27.99,0 55.99,-13.94 62.98,-34.86 14,-20.91 14,-48.8 7,-62.74 -28,-62.74 -83.97,-202.17 -153.97,-446.16 -34.98,-125.49 -111.96,-209.14 -174.94,-223.08 -35,-6.98 -69.98,6.97 -97.98,34.85 -118.97,139.43 -279.92,460.11 -335.91,620.45 -7,13.94 0,20.91 0,20.91 27.99,48.8 153.95,83.66 237.94,90.63z"></path>
    <path class="fil0" d="M465.76 2148.02c-181.95,0 -377.9,-34.86 -419.88,-202.18 -14.01,-48.8 -118.97,-487.99 20.99,-683.18 42,-55.77 97.98,-90.63 167.96,-97.6 125.97,-13.94 412.89,-34.86 503.87,6.97 7,6.97 20.99,6.97 34.99,13.94 97.98,41.83 188.95,90.63 202.94,334.62 7.01,188.23 35,585.59 -237.93,606.5l-28 0c-62.98,6.98 -153.95,20.93 -244.94,20.93zm97.99 -864.45c-90.99,0 -202.95,6.97 -307.93,13.94 -27.98,0 -55.98,13.94 -69.98,41.83 -69.98,97.6 -55.98,369.48 0,571.64 34.99,132.46 377.91,97.6 524.86,83.67l28 0c90.97,-6.98 132.97,-160.35 111.96,-467.09 -6.99,-174.28 -55.97,-188.22 -118.95,-216.11 -14.01,-6.97 -28,-6.97 -42,-13.94 -20.99,-13.94 -69.98,-13.94 -125.96,-13.94z"></path>
    <path class="fil0" d="M1599.47 2141.04c-111.96,0 -223.93,-34.86 -307.91,-104.57 -132.98,-104.57 -237.94,-348.57 -174.95,-564.68 27.98,-104.57 132.96,-285.82 454.87,-320.68 90.97,-6.97 230.95,13.95 335.91,111.54 69.98,62.75 153.97,181.26 153.97,390.4 0,202.16 -90.98,362.51 -251.93,446.16 -69.98,27.88 -139.96,41.83 -209.96,41.83zm14.01 -850.5c-7,0 -14.01,0 -28,0 -181.96,20.91 -300.93,97.6 -335.91,223.08 -41.99,153.36 34.98,341.59 125.97,418.28 104.98,83.66 258.93,97.59 370.9,41.82 111.98,-55.77 174.96,-167.3 174.96,-320.67 0,-125.49 -35,-223.08 -104.98,-292.8 -69.98,-55.77 -146.95,-69.71 -202.94,-69.71z"></path>
   </g>
   <g>
    <path class="fil1" d="M9298.74 1702.34c-74.42,-172.98 -148.84,-321.24 -256.33,-444.8 -57.88,-65.9 -115.77,-98.84 -181.9,-98.84 -198.46,0 -372.09,329.47 -454.8,494.23l0 8.23c-57.86,115.31 -115.75,238.86 -165.37,354.19 -16.53,32.94 -8.27,57.65 8.27,74.13 16.55,24.71 49.62,41.19 82.68,41.19 41.35,0 82.71,-24.71 99.24,-65.9l8.27 -16.48 16.53 -41.18c24.8,-57.65 49.62,-115.32 82.69,-172.97 66.15,-140.04 140.57,-280.07 231.52,-395.39 16.55,-24.71 41.35,-49.42 57.88,-65.89 8.27,-8.24 16.54,-16.48 16.54,-16.48 0,0 8.26,-8.23 16.55,-8.23l8.27 0c16.53,8.23 33.06,24.71 49.6,41.18 90.97,98.84 157.1,238.87 214.99,362.43l8.26 24.71c41.35,98.84 82.69,197.7 115.77,296.53 16.54,41.19 49.62,65.9 90.96,65.9 33.08,0 66.15,-16.48 82.68,-41.19 8.27,-16.48 24.82,-41.19 8.27,-74.13 -49.6,-107.08 -90.95,-205.92 -140.57,-321.24z"></path>
    <path class="fil1" d="M7826.91 1282.25c-24.81,-49.42 -66.15,-98.84 -132.3,-107.09 -8.27,0 -16.53,0 -24.8,0 -49.62,0 -99.24,24.73 -132.3,82.38 -49.62,74.13 -99.22,148.27 -140.58,230.63 -41.35,-74.13 -82.68,-148.25 -132.3,-214.15 -33.07,-41.19 -74.42,-90.61 -140.57,-90.61l-8.27 0c-74.42,8.23 -115.75,57.65 -140.57,107.09 -140.57,230.63 -223.25,485.97 -297.67,741.31l-8.27 32.96c-8.27,8.23 -8.27,32.94 8.27,49.42 16.55,24.71 49.62,41.19 82.68,41.19 41.35,0 74.42,-24.73 90.97,-65.9l8.27 -41.19c57.88,-189.44 124.02,-387.13 206.72,-568.35 16.54,-24.71 24.8,-49.42 41.34,-74.13 0,-8.25 8.26,-8.25 8.26,-16.48 0,0 0,0 0,-8.24l8.27 8.24c8.27,8.23 8.27,16.48 16.55,24.71 57.87,90.61 115.75,189.45 173.64,288.3 16.53,24.71 41.33,41.17 74.42,41.17l8.26 0 8.27 0c33.09,0 57.89,-16.46 74.42,-41.17 57.89,-98.85 107.5,-189.46 165.37,-280.07 8.27,-8.23 8.27,-16.46 16.55,-24.71 0,-8.23 8.27,-8.23 8.27,-16.47 8.27,16.47 16.53,32.95 24.8,41.18 8.27,16.48 24.8,32.96 24.8,49.42 90.97,181.22 148.84,378.91 206.72,568.37l8.27 41.17c8.27,41.19 49.62,65.9 90.95,65.9 33.09,0 66.15,-16.46 82.71,-41.19 85.66,-85.28 -226.16,-736.69 -281.15,-823.69z"></path>
    <path class="fil1" d="M10431.57 1249.31l-8.28 -57.67c-8.27,-41.19 -33.07,-65.9 -74.42,-65.9 -33.07,0 -66.14,16.48 -82.69,41.19 -16.53,24.71 -24.8,49.42 -24.8,82.38l8.27 65.9c16.53,123.54 33.08,247.11 41.35,378.89 8.27,189.46 -16.55,255.36 -41.35,271.82 -8.27,8.25 -16.54,8.25 -24.8,8.25 -16.54,0 -33.09,-8.25 -57.89,-32.96 -41.35,-41.19 -66.15,-90.61 -99.22,-131.8 -8.26,-16.46 -16.55,-24.71 -24.82,-41.17 -41.33,-65.9 -82.68,-131.79 -124.01,-197.69 -74.42,-123.57 -148.84,-255.34 -214.99,-387.14 -8.27,-32.96 -24.82,-57.67 -49.62,-65.9 0,0 0,0 -8.27,0l-8.27 0c-8.26,0 -16.53,0 -24.8,0 -49.61,0 -99.23,32.94 -99.23,90.61l0 864.88c0,57.67 49.62,90.61 99.23,90.61 24.8,0 49.6,-8.23 66.14,-24.71 16.55,-16.48 33.08,-41.19 33.08,-74.13l0 -485.99c41.34,74.15 82.69,140.02 124.04,205.92 8.27,16.48 24.8,41.19 41.33,57.67 82.69,131.8 173.64,296.53 339.03,313.01 8.27,0 16.53,0 24.8,0 223.26,0 248.06,-280.07 248.06,-362.43 -8.27,-189.46 -33.07,-370.68 -57.87,-543.64z"></path>
    <path class="fil1" d="M5561.27 1298.73c-16.54,0 -33.07,8.23 -49.6,16.48l8.26 -8.25c16.54,-24.71 16.54,-57.65 0,-90.61 -74.42,-115.32 -206.72,-189.44 -355.56,-189.44 -49.62,0 -99.22,8.23 -148.84,24.71 -190.18,65.89 -339.02,263.59 -372.09,494.22 -16.53,131.79 16.53,255.34 99.22,354.2 99.24,115.31 272.87,189.44 438.24,189.44 140.58,0 264.61,-49.42 355.57,-140.02 165.37,-156.51 198.45,-411.85 99.21,-601.31 -16.53,-24.71 -41.33,-49.42 -74.41,-49.42zm-190.18 551.87c-57.88,41.19 -124.03,57.67 -198.45,57.67 -99.22,0 -190.19,-32.96 -264.61,-98.84 -82.68,-74.15 -107.49,-156.5 -82.68,-271.82 24.81,-90.61 66.15,-172.99 115.77,-230.65 57.88,-57.65 140.57,-98.84 223.25,-98.84 74.42,0 140.57,32.96 181.91,98.84 16.55,32.96 41.35,41.19 74.42,41.19 16.55,0 33.08,-8.23 49.61,-16.48l-8.26 8.25c-16.54,24.7 -16.54,57.64 0,90.6 82.68,148.26 33.06,329.47 -90.96,420.08z"></path>
    <path class="fil1" d="M6677.55 1199.89c-8.27,-65.9 -57.87,-90.61 -107.49,-90.61 -24.8,0 -57.88,8.23 -74.42,24.71 -16.53,16.46 -24.8,41.19 -16.53,65.9 24.8,280.05 -8.27,485.98 -99.24,609.52 -33.06,49.44 -99.22,82.38 -157.1,82.38 -41.34,0 -82.69,-16.48 -124.02,-41.19 -107.5,-82.36 -132.31,-238.86 -140.57,-354.18 -8.27,-107.09 -8.27,-205.92 0,-296.53 0,-24.71 0,-49.44 -16.54,-65.9 -16.55,-16.48 -41.35,-24.71 -74.41,-24.71 -49.62,0 -99.24,32.94 -107.51,90.61 -16.53,164.73 -41.33,576.58 190.19,790.74 74.42,65.89 173.64,107.08 272.86,107.08 82.68,0 157.1,-24.71 223.25,-74.13 157.11,-115.31 198.46,-321.24 214.99,-469.51 24.82,-123.55 24.82,-247.11 16.54,-354.18z"></path>
    <path class="fil1" d="M3833.1 1982.4c74.42,65.89 173.64,107.08 272.87,107.08 82.69,0 157.1,-24.71 223.25,-74.13 157.12,-115.31 198.45,-321.25 215,-469.51 16.53,-123.57 16.53,-238.88 8.27,-354.2 -8.27,-65.9 -57.89,-90.61 -107.51,-90.61 -24.8,0 -57.88,8.25 -74.41,24.71 -16.54,16.48 -24.8,41.19 -16.54,65.9 24.8,280.07 -8.26,485.99 -99.22,609.54 -33.08,49.42 -99.23,82.38 -157.11,82.38 -41.34,0 -82.69,-16.48 -124.03,-41.19 -107.49,-82.38 -132.3,-238.88 -140.57,-354.2 -8.27,-107.07 -8.27,-205.92 0,-296.53 0,-24.71 0,-49.42 -16.54,-65.9 -16.53,-16.46 -41.34,-24.71 -74.42,-24.71 -49.61,0 -99.22,32.96 -107.49,90.61 -8.27,172.98 -24.81,584.83 198.45,790.76z"></path>
    <path class="fil1" d="M4469.8 2221.28c-49.62,0 -82.7,24.71 -99.23,65.9 -24.8,74.12 -82.69,107.06 -173.64,107.06 -173.65,0 -413.44,-140.02 -463.05,-164.73 -16.54,-8.23 -33.08,-16.48 -49.62,-16.48 -41.34,0 -82.68,32.96 -99.22,82.38 -16.54,41.18 8.27,90.6 41.34,115.31 74.42,41.19 330.75,189.45 570.55,189.45 181.9,0 305.94,-82.36 372.09,-247.12 16.54,-41.17 0,-65.87 -8.27,-82.35 -16.53,-32.96 -49.61,-49.42 -90.95,-49.42z"></path>
    <path class="fil1" d="M2526.64 112.6c0,626.01 0,1243.78 0,1869.8 0,131.79 206.72,131.79 206.72,0 0,-626.02 0,-1243.79 0,-1869.8 0,-140.03 -206.72,-140.03 -206.72,0z"></path>
    <path class="fil1" d="M2774.7 1405.81c82.69,-172.98 388.64,-205.92 496.13,-24.71 49.61,82.36 24.8,189.45 8.27,280.06 -16.54,115.31 -41.35,230.63 -57.88,354.18 -24.81,131.79 181.91,164.75 198.45,32.95 24.8,-156.5 66.15,-321.24 74.41,-485.99 8.27,-148.26 -24.8,-296.53 -148.83,-387.14 -239.8,-189.44 -620.16,-131.78 -752.46,148.28 -57.88,115.31 124.03,205.92 181.91,82.37z"></path>
   </g>
  </g>
 </g>
</svg>